<svg width="20" height="20" viewBox="0 0 20 20" fill="none" xmlns="http://www.w3.org/2000/svg">
<mask id="path-1-inside-1_270_225" fill="white">
<path d="M6.04196 3.81053C5.84063 3.82984 5.63693 3.81098 5.44301 3.75506C5.2491 3.69914 5.06894 3.60732 4.91329 3.48507C4.75764 3.36282 4.62969 3.21264 4.53706 3.04351C4.44443 2.87437 4.38903 2.68973 4.37416 2.50061C4.35929 2.31149 4.38526 2.12176 4.45051 1.94274C4.51576 1.76371 4.61896 1.59907 4.75396 1.45862C4.88895 1.31818 5.05297 1.2048 5.23624 1.12527C5.4195 1.04574 5.61826 1.00168 5.82064 0.99571L17.1651 0.285468C17.5637 0.260746 17.9576 0.385174 18.2602 0.631419C18.5627 0.877665 18.7493 1.22559 18.7789 1.59877L19.6141 12.2208C19.6361 12.4093 19.6173 12.5998 19.5589 12.7809C19.5004 12.962 19.4035 13.13 19.2739 13.2749C19.1443 13.4197 18.9847 13.5385 18.8046 13.624C18.6245 13.7096 18.4276 13.7602 18.2256 13.7728C18.0236 13.7855 17.8207 13.7599 17.629 13.6976C17.4372 13.6354 17.2606 13.5377 17.1096 13.4104C16.9587 13.2831 16.8364 13.1288 16.7502 12.9568C16.664 12.7847 16.6156 12.5984 16.6078 12.409L16.0399 5.18602L3.31052 18.9122C3.04921 19.1939 2.67831 19.3663 2.27941 19.3912C1.8805 19.4162 1.48626 19.2918 1.18343 19.0453C0.880593 18.7989 0.693964 18.4506 0.664596 18.0771C0.635228 17.7036 0.765528 17.3355 1.02683 17.0537L13.7562 3.32757L6.04196 3.81053Z"/>
</mask>
<path d="M6.04196 3.81053C5.84063 3.82984 5.63693 3.81098 5.44301 3.75506C5.2491 3.69914 5.06894 3.60732 4.91329 3.48507C4.75764 3.36282 4.62969 3.21264 4.53706 3.04351C4.44443 2.87437 4.38903 2.68973 4.37416 2.50061C4.35929 2.31149 4.38526 2.12176 4.45051 1.94274C4.51576 1.76371 4.61896 1.59907 4.75396 1.45862C4.88895 1.31818 5.05297 1.2048 5.23624 1.12527C5.4195 1.04574 5.61826 1.00168 5.82064 0.99571L17.1651 0.285468C17.5637 0.260746 17.9576 0.385174 18.2602 0.631419C18.5627 0.877665 18.7493 1.22559 18.7789 1.59877L19.6141 12.2208C19.6361 12.4093 19.6173 12.5998 19.5589 12.7809C19.5004 12.962 19.4035 13.13 19.2739 13.2749C19.1443 13.4197 18.9847 13.5385 18.8046 13.624C18.6245 13.7096 18.4276 13.7602 18.2256 13.7728C18.0236 13.7855 17.8207 13.7599 17.629 13.6976C17.4372 13.6354 17.2606 13.5377 17.1096 13.4104C16.9587 13.2831 16.8364 13.1288 16.7502 12.9568C16.664 12.7847 16.6156 12.5984 16.6078 12.409L16.0399 5.18602L3.31052 18.9122C3.04921 19.1939 2.67831 19.3663 2.27941 19.3912C1.8805 19.4162 1.48626 19.2918 1.18343 19.0453C0.880593 18.7989 0.693964 18.4506 0.664596 18.0771C0.635228 17.7036 0.765528 17.3355 1.02683 17.0537L13.7562 3.32757L6.04196 3.81053Z" fill="#009588"/>
<path d="M6.04196 3.81053L5.86365 0.91452L5.80912 0.917934L5.75473 0.923151L6.04196 3.81053ZM5.82064 0.99571L5.88994 3.89674L5.94449 3.89513L5.99896 3.89172L5.82064 0.99571ZM17.1651 0.285468L16.9887 -2.61067L16.9868 -2.61055L17.1651 0.285468ZM18.7789 1.59877L21.865 1.35932L21.8649 1.35752L18.7789 1.59877ZM19.6141 12.2208L16.528 12.4602L16.532 12.5112L16.538 12.562L19.6141 12.2208ZM16.6078 12.409L19.7 12.2717L19.6979 12.2206L19.6939 12.1695L16.6078 12.409ZM16.0399 5.18602L19.126 4.94657L18.583 -1.95891L13.713 3.29243L16.0399 5.18602ZM13.7562 3.32757L16.0831 5.22116L20.9531 -0.0301793L13.5779 0.431557L13.7562 3.32757ZM6.04196 3.81053L5.75473 0.923151C5.9675 0.902744 6.17885 0.923018 6.37671 0.980074L5.44301 3.75506L4.50932 6.53004C5.09501 6.69894 5.71376 6.75694 6.3292 6.69792L6.04196 3.81053ZM5.44301 3.75506L6.37671 0.980074C6.57446 1.0371 6.75628 1.13011 6.91253 1.25284L4.91329 3.48507L2.91405 5.7173C3.38161 6.08453 3.92374 6.36119 4.50932 6.53004L5.44301 3.75506ZM4.91329 3.48507L6.91253 1.25284C7.06878 1.37555 7.19807 1.52689 7.2923 1.69895L4.53706 3.04351L1.78182 4.38806C2.06131 4.8984 2.44651 5.35008 2.91405 5.7173L4.91329 3.48507ZM4.53706 3.04351L7.2923 1.69895C7.38658 1.87111 7.4446 2.06198 7.46026 2.26115L4.37416 2.50061L1.28807 2.74007C1.33347 3.31748 1.50229 3.87763 1.78182 4.38806L4.53706 3.04351ZM4.37416 2.50061L7.46026 2.26115C7.47593 2.46048 7.44881 2.66416 7.37765 2.8594L4.45051 1.94274L1.52337 1.02607C1.32171 1.57936 1.24266 2.16249 1.28807 2.74007L4.37416 2.50061ZM4.45051 1.94274L7.37765 2.8594C7.30644 3.05475 7.19315 3.23605 7.04389 3.39134L4.75396 1.45862L2.46403 -0.474092C2.04478 -0.0379095 1.72508 0.47268 1.52337 1.02607L4.45051 1.94274ZM4.75396 1.45862L7.04389 3.39134C6.89464 3.54662 6.71419 3.67094 6.51469 3.75751L5.23624 1.12527L3.95779 -1.50697C3.39176 -1.26133 2.88327 -0.910265 2.46403 -0.474092L4.75396 1.45862ZM5.23624 1.12527L6.51469 3.75751C6.31532 3.84404 6.10253 3.89047 5.88994 3.89674L5.82064 0.99571L5.75134 -1.90532C5.13399 -1.88712 4.52369 -1.75256 3.95779 -1.50697L5.23624 1.12527ZM5.82064 0.99571L5.99896 3.89172L17.3434 3.18148L17.1651 0.285468L16.9868 -2.61055L5.64232 -1.9003L5.82064 0.99571ZM17.1651 0.285468L17.3415 3.1816C16.9228 3.20757 16.5224 3.07704 16.2202 2.83111L18.2602 0.631419L20.3001 -1.56827C19.3927 -2.30669 18.2047 -2.68608 16.9887 -2.61067L17.1651 0.285468ZM18.2602 0.631419L16.2202 2.83111C15.918 2.58517 15.7241 2.23208 15.693 1.84003L18.7789 1.59877L21.8649 1.35752C21.7746 0.219103 21.2075 -0.829841 20.3001 -1.56827L18.2602 0.631419ZM18.7789 1.59877L15.6928 1.83823L16.528 12.4602L19.6141 12.2208L22.7002 11.9813L21.865 1.35932L18.7789 1.59877ZM19.6141 12.2208L16.538 12.562C16.5149 12.364 16.5342 12.1601 16.5978 11.9631L19.5589 12.7809L22.5199 13.5988C22.7004 13.0396 22.7573 12.4547 22.6903 11.8795L19.6141 12.2208ZM19.5589 12.7809L16.5978 11.9631C16.6614 11.7659 16.7676 11.5812 16.9109 11.421L19.2739 13.2749L21.637 15.1287C22.0394 14.6789 22.3394 14.1582 22.5199 13.5988L19.5589 12.7809ZM19.2739 13.2749L16.9109 11.421C17.0541 11.2609 17.2299 11.1304 17.4265 11.0371L18.8046 13.624L20.1828 16.211C20.7395 15.9465 21.2345 15.5786 21.637 15.1287L19.2739 13.2749ZM18.8046 13.624L17.4265 11.0371C17.6229 10.9438 17.8344 10.8901 18.0473 10.8768L18.2256 13.7728L18.4039 16.6688C19.0208 16.6302 19.6261 16.4754 20.1828 16.211L18.8046 13.624ZM18.2256 13.7728L18.0473 10.8768C18.26 10.8635 18.4699 10.8906 18.665 10.954L17.629 13.6976L16.5929 16.4412C17.1715 16.6292 17.7872 16.7075 18.4039 16.6688L18.2256 13.7728ZM17.629 13.6976L18.665 10.954C18.8601 11.0174 19.0381 11.1161 19.1897 11.2439L17.1096 13.4104L15.0296 15.5769C15.4831 15.9592 16.0144 16.2534 16.5929 16.4412L17.629 13.6976ZM17.1096 13.4104L19.1897 11.2439C19.3412 11.3717 19.465 11.5273 19.5529 11.7028L16.7502 12.9568L13.9475 14.2108C14.2078 14.7303 14.5761 15.1945 15.0296 15.5769L17.1096 13.4104ZM16.7502 12.9568L19.5529 11.7028C19.6409 11.8783 19.6918 12.0715 19.7 12.2717L16.6078 12.409L13.5156 12.5462C13.5393 13.1253 13.6871 13.6911 13.9475 14.2108L16.7502 12.9568ZM16.6078 12.409L19.6939 12.1695L19.126 4.94657L16.0399 5.18602L12.9538 5.42548L13.5217 12.6484L16.6078 12.409ZM16.0399 5.18602L13.713 3.29243L0.983652 17.0186L3.31052 18.9122L5.63739 20.8058L18.3668 7.07961L16.0399 5.18602ZM3.31052 18.9122L0.983652 17.0186C1.27394 16.7056 1.67965 16.5216 2.10109 16.4952L2.27941 19.3912L2.45772 22.2873C3.67698 22.2109 4.82449 21.6823 5.63739 20.8058L3.31052 18.9122ZM2.27941 19.3912L2.10109 16.4952C2.52019 16.469 2.92093 16.5995 3.22338 16.8457L1.18343 19.0453L-0.856518 21.245C0.0515983 21.9841 1.2408 22.3634 2.45772 22.2873L2.27941 19.3912ZM1.18343 19.0453L3.22338 16.8457C3.52582 17.0918 3.71983 17.4453 3.75069 17.8377L0.664596 18.0771L-2.4215 18.3166C-2.33191 19.456 -1.76463 20.506 -0.856518 21.245L1.18343 19.0453ZM0.664596 18.0771L3.75069 17.8377C3.78172 18.2323 3.64399 18.6343 3.3537 18.9473L1.02683 17.0537L-1.30003 15.1601C-2.11293 16.0367 -2.51126 17.175 -2.4215 18.3166L0.664596 18.0771ZM1.02683 17.0537L3.3537 18.9473L16.0831 5.22116L13.7562 3.32757L11.4293 1.43398L-1.30003 15.1601L1.02683 17.0537ZM13.7562 3.32757L13.5779 0.431557L5.86365 0.91452L6.04196 3.81053L6.22028 6.70655L13.9345 6.22358L13.7562 3.32757Z" fill="white" mask="url(#path-1-inside-1_270_225)"/>
</svg>
