<svg width="23" height="28" viewBox="0 0 23 28" fill="none" xmlns="http://www.w3.org/2000/svg">
<path d="M0.904297 23.3333V20.6666H3.6543V11.3333C3.6543 9.48885 4.22721 7.85551 5.37305 6.43329C6.51888 4.98885 8.00846 4.0444 9.8418 3.59996V2.66663C9.8418 2.11107 10.0366 1.6444 10.4262 1.26662C10.8387 0.866625 11.3314 0.666626 11.9043 0.666626C12.4772 0.666626 12.9585 0.866625 13.348 1.26662C13.7605 1.6444 13.9668 2.11107 13.9668 2.66663V3.59996C15.8001 4.0444 17.2897 4.98885 18.4355 6.43329C19.5814 7.85551 20.1543 9.48885 20.1543 11.3333V20.6666H22.9043V23.3333H0.904297ZM11.9043 27.3333C11.148 27.3333 10.4949 27.0777 9.94492 26.5666C9.41784 26.0333 9.1543 25.4 9.1543 24.6666H14.6543C14.6543 25.4 14.3793 26.0333 13.8293 26.5666C13.3022 27.0777 12.6605 27.3333 11.9043 27.3333ZM6.4043 20.6666H17.4043V11.3333C17.4043 9.86662 16.8658 8.61107 15.7887 7.56663C14.7116 6.52218 13.4168 5.99996 11.9043 5.99996C10.3918 5.99996 9.09701 6.52218 8.01992 7.56663C6.94284 8.61107 6.4043 9.86662 6.4043 11.3333V20.6666Z" fill="#4A4A4A"/>
</svg>
